<?xml version="1.0" encoding="UTF-8"?>
<svg version="1.1" xmlns="http://www.w3.org/2000/svg" width="163" height="103">
<path d="M0 0 C0.87140625 0.00322266 1.7428125 0.00644531 2.640625 0.00976562 C3.50429687 -0.00634766 4.36796875 -0.02246094 5.2578125 -0.0390625 C11.56759594 -0.04393116 11.56759594 -0.04393116 14.8046875 1.65429688 C17.80781475 5.08300098 17.39444282 8.73899949 17.3984375 13.08007812 C17.39939423 13.74256561 17.40035095 14.4050531 17.40133667 15.08761597 C17.40201685 16.49135432 17.40017387 17.89509583 17.39599609 19.29882812 C17.39069643 21.41869442 17.39591993 23.53834386 17.40234375 25.65820312 C17.41971907 44.66512372 17.41971907 44.66512372 14.72924805 48.52832031 C11.29803341 51.02684029 8.18812307 50.86066811 4.10546875 50.78320312 C3.31918594 50.78228668 2.53290314 50.78137024 1.72279358 50.78042603 C0.0644017 50.77439592 -1.59397958 50.75866746 -3.25219727 50.73388672 C-5.79158599 50.69734174 -8.32951618 50.69286772 -10.86914062 50.69335938 C-12.48178345 50.68352906 -14.0944164 50.67187242 -15.70703125 50.65820312 C-16.46645523 50.65597748 -17.22587921 50.65375183 -18.00831604 50.65145874 C-21.77391071 50.58355708 -23.52511676 50.46177112 -26.734375 48.32226562 C-27.16269245 45.53820221 -27.22224605 44.01081397 -25.57104492 41.68041992 C-22.98647266 39.76921754 -21.16232056 39.98072331 -17.97265625 40.02929688 C-16.85439453 40.03896484 -15.73613281 40.04863281 -14.58398438 40.05859375 C-12.83311523 40.09629883 -12.83311523 40.09629883 -11.046875 40.13476562 C-9.86802734 40.14830078 -8.68917969 40.16183594 -7.47460938 40.17578125 C-4.56074089 40.21117237 -1.64778555 40.26054753 1.265625 40.32226562 C1.265625 39.33226562 1.265625 38.34226563 1.265625 37.32226562 C0.13382813 37.27328125 -0.99796875 37.22429687 -2.1640625 37.17382812 C-3.64585839 37.09880049 -5.127628 37.02325265 -6.609375 36.94726562 C-7.35574219 36.91632813 -8.10210937 36.88539062 -8.87109375 36.85351562 C-14.5078125 36.54882812 -14.5078125 36.54882812 -16.734375 34.32226562 C-16.359375 31.19726562 -16.359375 31.19726562 -15.734375 28.32226562 C-12.434375 27.66226563 -9.134375 27.00226562 -5.734375 26.32226562 C-5.404375 25.33226563 -5.074375 24.34226562 -4.734375 23.32226562 C-5.97525879 23.35368652 -5.97525879 23.35368652 -7.24121094 23.38574219 C-10.9888087 23.46888182 -14.73621249 23.52092093 -18.484375 23.57226562 C-19.78632812 23.60578125 -21.08828125 23.63929687 -22.4296875 23.67382812 C-23.68007812 23.68671875 -24.93046875 23.69960938 -26.21875 23.71289062 C-27.37084961 23.73383789 -28.52294922 23.75478516 -29.70996094 23.77636719 C-33.33462215 23.23214134 -34.47255939 22.12769357 -36.734375 19.32226562 C-34.984375 14.44726562 -34.984375 14.44726562 -32.734375 13.32226562 C-30.03544319 13.23551025 -27.36268269 13.20668665 -24.6640625 13.22460938 C-23.86783478 13.22602432 -23.07160706 13.22743927 -22.25125122 13.22889709 C-19.7039212 13.23450218 -17.15667853 13.24705549 -14.609375 13.25976562 C-12.88411585 13.26477997 -11.15885533 13.26934299 -9.43359375 13.2734375 C-5.20048709 13.28447325 -0.96744586 13.30174126 3.265625 13.32226562 C3.265625 12.33226562 3.265625 11.34226562 3.265625 10.32226562 C2.21375 10.38414063 1.161875 10.44601563 0.078125 10.50976562 C-3.92830404 10.31272813 -5.73618458 9.95703903 -8.734375 7.32226562 C-9.171875 4.75976562 -9.171875 4.75976562 -8.734375 2.32226562 C-5.921765 -0.49034437 -3.84401133 0.03272765 0 0 Z " fill="#DEDFE0" transform="translate(90.734375,35.677734375)"/>
<path d="M0 0 C6.2268618 4.21228887 11.12185814 9.78221469 15.3125 16 C15.3125 16.99 15.3125 17.98 15.3125 19 C14.13494141 19.51046875 14.13494141 19.51046875 12.93359375 20.03125 C3.85171703 24.22117104 -1.88051195 28.58543064 -6.125 37.75 C-9.10239081 46.15371778 -8.73945868 54.60494042 -4.99609375 62.6875 C-0.21582198 71.13502503 6.17833701 75.7779491 15.3125 79 C20.9141674 80.37995923 26.60006595 81.22841531 32.3125 82 C32.3125 83.32 32.3125 84.64 32.3125 86 C31.3125 87 31.3125 87 28.23828125 87.16015625 C14.68688339 86.60731315 3.84305405 81.98907738 -5.5625 72.1875 C-9.10130087 67.91423103 -10.96083487 63.22641111 -12.6875 58 C-13.0175 57.01 -13.3475 56.02 -13.6875 55 C-14.54339995 45.12207265 -13.69995467 36.43928039 -7.69921875 28.3046875 C-3.22829671 23.13108168 1.63639231 18.80469344 7.3125 15 C1.24235089 6.78910225 -8.68132699 1.01314671 -18.6875 -1 C-32.87176447 -2.46523709 -44.22697033 -0.70715007 -55.91015625 7.828125 C-57.6875 9 -57.6875 9 -59.6875 9 C-59.95941162 9.5878125 -60.23132324 10.175625 -60.51147461 10.78125 C-61.66315309 12.95406587 -62.93538569 14.61498501 -64.50390625 16.5 C-68.35337784 21.55323417 -70.40414329 27.09279891 -72.625 33 C-73.49318197 35.2310958 -74.36297476 37.46156545 -75.234375 39.69140625 C-75.65267578 40.7705127 -76.07097656 41.84961914 -76.50195312 42.96142578 C-82.95309689 59.4958029 -90.21378597 76.25344238 -107.296875 84.03515625 C-112.09722536 85.97255255 -116.4301752 87.31862575 -121.6875 87 C-122.1825 84.525 -122.1825 84.525 -122.6875 82 C-121.9140625 81.82984375 -121.140625 81.6596875 -120.34375 81.484375 C-108.9723163 78.83854637 -100.08347608 75.26398763 -93.3125 65.375 C-88.43962825 57.39338666 -85.13106521 48.66532089 -81.6875 40 C-81.39955566 39.27570801 -81.11161133 38.55141602 -80.81494141 37.80517578 C-80.27548155 36.44617031 -79.7363237 35.0870449 -79.19750977 33.7277832 C-72.92745935 17.92677275 -65.53620353 4.67299503 -49.6875 -3 C-49.00816406 -3.39445313 -48.32882813 -3.78890625 -47.62890625 -4.1953125 C-33.28572179 -11.50752418 -13.30121091 -7.56633555 0 0 Z " fill="#A8AAAE" transform="translate(125.6875,11)"/>
<path d="M0 0 C-0.99 0.66 -1.98 1.32 -3 2 C-2.25838623 1.98952637 -1.51677246 1.97905273 -0.75268555 1.96826172 C2.60234193 1.92672804 5.95731533 1.90068211 9.3125 1.875 C10.47974609 1.85824219 11.64699219 1.84148438 12.84960938 1.82421875 C13.96787109 1.81777344 15.08613281 1.81132813 16.23828125 1.8046875 C17.26993408 1.79421387 18.30158691 1.78374023 19.36450195 1.77294922 C22 2 22 2 25 4 C24.3608667 3.97905273 23.7217334 3.95810547 23.06323242 3.93652344 C7.80907737 3.50190861 -3.53932482 3.56218305 -16.22265625 12.828125 C-18 14 -18 14 -20 14 C-20.27191162 14.5878125 -20.54382324 15.175625 -20.82397461 15.78125 C-21.97565309 17.95406587 -23.24788569 19.61498501 -24.81640625 21.5 C-28.66587784 26.55323417 -30.71664329 32.09279891 -32.9375 38 C-33.80568197 40.2310958 -34.67547476 42.46156545 -35.546875 44.69140625 C-35.96517578 45.7705127 -36.38347656 46.84961914 -36.81445312 47.96142578 C-43.26559689 64.4958029 -50.52628597 81.25344238 -67.609375 89.03515625 C-72.40972536 90.97255255 -76.7426752 92.31862575 -82 92 C-82.495 89.525 -82.495 89.525 -83 87 C-82.2265625 86.82984375 -81.453125 86.6596875 -80.65625 86.484375 C-69.2848163 83.83854637 -60.39597608 80.26398763 -53.625 70.375 C-48.75212825 62.39338666 -45.44356521 53.66532089 -42 45 C-41.71205566 44.27570801 -41.42411133 43.55141602 -41.12744141 42.80517578 C-40.58798155 41.44617031 -40.0488237 40.0870449 -39.51000977 38.7277832 C-33.24073923 22.92873811 -25.85491684 9.67534843 -10 2 C-9.33226563 1.66742188 -8.66453125 1.33484375 -7.9765625 0.9921875 C-3.42236842 -1.14078947 -3.42236842 -1.14078947 0 0 Z " fill="#C2C4C7" transform="translate(86,6)"/>
<path d="M0 0 C16.70597227 -0.6160194 31.49529716 -0.20095941 45 11 C48.69589699 14.69090254 52.07996563 18.66745443 55 23 C55 23.99 55 24.98 55 26 C51.27034861 28.03435531 49.33094958 29 45 29 C45.33 28.21625 45.66 27.4325 46 26.625 C47.11866511 24.15667503 47.11866511 24.15667503 47 22 C41.80556397 14.53071728 33.37023773 10.16208981 25 7 C25 6.34 25 5.68 25 5 C15.43 5 5.86 5 -4 5 C-3.34 4.01 -2.68 3.02 -2 2 C-1.34 2 -0.68 2 0 2 C0 1.34 0 0.68 0 0 Z " fill="#BEC0C2" transform="translate(86,4)"/>
<path d="M0 0 C-0.99 0.66 -1.98 1.32 -3 2 C-2.25838623 1.98952637 -1.51677246 1.97905273 -0.75268555 1.96826172 C2.60234193 1.92672804 5.95731533 1.90068211 9.3125 1.875 C10.47974609 1.85824219 11.64699219 1.84148438 12.84960938 1.82421875 C13.96787109 1.81777344 15.08613281 1.81132813 16.23828125 1.8046875 C17.26993408 1.79421387 18.30158691 1.78374023 19.36450195 1.77294922 C22 2 22 2 25 4 C24.3608667 3.97905273 23.7217334 3.95810547 23.06323242 3.93652344 C7.80907737 3.50190861 -3.53932482 3.56218305 -16.22265625 12.828125 C-18 14 -18 14 -20 14 C-20.2475 14.556875 -20.495 15.11375 -20.75 15.6875 C-22.25010679 18.46269757 -23.83115615 20.7035771 -26 23 C-27.32 23 -28.64 23 -30 23 C-29.45964981 16.37106106 -26.4172195 13.75899527 -21.76171875 9.3359375 C-18.08376771 6.22502559 -14.36391346 3.99978966 -10 2 C-9.33613281 1.67128906 -8.67226562 1.34257813 -7.98828125 1.00390625 C-3.43359375 -1.14453125 -3.43359375 -1.14453125 0 0 Z " fill="#B7B9BB" transform="translate(86,6)"/>
<path d="M0 0 C1.85625 -0.01160156 1.85625 -0.01160156 3.75 -0.0234375 C7 0.375 7 0.375 8.94140625 1.73828125 C10 3.375 10 3.375 9.9375 5.9375 C9 8.375 9 8.375 7.25390625 9.51171875 C4.69016357 10.49367218 2.7395227 10.64170441 0 10.625 C-1.2684375 10.63273437 -1.2684375 10.63273437 -2.5625 10.640625 C-5.18120684 10.3552531 -6.79814144 9.8084247 -9 8.375 C-9.9375 5.9375 -9.9375 5.9375 -10 3.375 C-7.5012776 -0.48833833 -4.28751965 -0.026797 0 0 Z " fill="#D1D2D4" transform="translate(69,35.625)"/>
<path d="M0 0 C1.32 0.66 2.64 1.32 4 2 C2.577625 6.47911359 0.87515935 10.7543214 -1 15.0625 C-2.72004194 19.02289657 -4.419947 22.98149981 -6 27 C-6.66 26.01 -7.32 25.02 -8 24 C-9.32 26.31 -10.64 28.62 -12 31 C-13 29 -13 29 -12.44262695 27.06396484 C-12.12769287 26.28746582 -11.81275879 25.5109668 -11.48828125 24.7109375 C-10.96911133 23.42123047 -10.96911133 23.42123047 -10.43945312 22.10546875 C-10.06755859 21.20441406 -9.69566406 20.30335937 -9.3125 19.375 C-8.95994141 18.49714844 -8.60738281 17.61929688 -8.24414062 16.71484375 C-2.4450485 2.4450485 -2.4450485 2.4450485 0 0 Z " fill="#BDBEC0" transform="translate(55,27)"/>
<path d="M0 0 C0 4.27840261 -2.28404432 5.82034457 -5 9 C-5.33 9.99 -5.66 10.98 -6 12 C-11.9609735 15.42992523 -18.22883663 16.56315075 -25 17 C-25.33 15.35 -25.66 13.7 -26 12 C-25.2265625 11.82984375 -24.453125 11.6596875 -23.65625 11.484375 C-14.1861783 9.28094248 -7.23491228 6.51142105 0 0 Z " fill="#AEB0B4" transform="translate(29,81)"/>
<path d="M0 0 C1.3303125 0.00773437 1.3303125 0.00773437 2.6875 0.015625 C3.574375 0.01046875 4.46125 0.0053125 5.375 0 C7.6875 0.265625 7.6875 0.265625 9.6875 2.265625 C9.9375 4.765625 9.9375 4.765625 9.6875 7.265625 C7.07576365 9.87736135 5.81551112 9.5638039 2.1875 9.578125 C1.2078125 9.59488281 0.228125 9.61164063 -0.78125 9.62890625 C-2.03421875 9.44908203 -2.03421875 9.44908203 -3.3125 9.265625 C-5.3125 6.265625 -5.3125 6.265625 -5.0625 4.203125 C-3.96469254 1.36712239 -3.05601229 0.35102844 0 0 Z " fill="#D4D5D7" transform="translate(61.3125,62.734375)"/>
<path d="M0 0 C0.99 0.33 1.98 0.66 3 1 C2.34 1 1.68 1 1 1 C0.835 2.010625 0.67 3.02125 0.5 4.0625 C-0.92145888 9.12000948 -4.74542303 12.15826369 -9 15 C-11.0703125 15.6328125 -11.0703125 15.6328125 -13 16 C-13.99 16.33 -14.98 16.66 -16 17 C-13.91137163 9.34169597 -6.48352976 3.98986447 0 0 Z " fill="#B5B8BA" transform="translate(132,27)"/>
<path d="M0 0 C-0.99 0.66 -1.98 1.32 -3 2 C-2.25838623 1.98952637 -1.51677246 1.97905273 -0.75268555 1.96826172 C2.60234193 1.92672804 5.95731533 1.90068211 9.3125 1.875 C10.47974609 1.85824219 11.64699219 1.84148438 12.84960938 1.82421875 C13.96787109 1.81777344 15.08613281 1.81132813 16.23828125 1.8046875 C17.26993408 1.79421387 18.30158691 1.78374023 19.36450195 1.77294922 C22 2 22 2 25 4 C24.3608667 3.97905273 23.7217334 3.95810547 23.06323242 3.93652344 C7.51876719 3.10514677 7.51876719 3.10514677 -7.20703125 7.22265625 C-7.79871094 7.47917969 -8.39039062 7.73570313 -9 8 C-9.66 7.67 -10.32 7.34 -11 7 C-10.34 6.01 -9.68 5.02 -9 4 C-10.65 4.33 -12.3 4.66 -14 5 C-12.6045933 2.20918661 -10.98580959 1.96096994 -8.125 0.8125 C-7.24070312 0.44769531 -6.35640625 0.08289063 -5.4453125 -0.29296875 C-3 -1 -3 -1 0 0 Z " fill="#808387" transform="translate(86,6)"/>
<path d="M0 0 C0.33 0 0.66 0 1 0 C1.7342166 6.75479274 -0.72408048 11.18524285 -4 17 C-4.99 16.67 -5.98 16.34 -7 16 C-6.55285048 11.34964504 -6.0655309 8.53715104 -3 5 C-2.195625 3.63875 -2.195625 3.63875 -1.375 2.25 C-0.92125 1.5075 -0.4675 0.765 0 0 Z " fill="#D1D2D4" transform="translate(47,50)"/>
<path d="M0 0 C0.33 0 0.66 0 1 0 C1.34615998 5.65394631 0.43425238 9.03006806 -2 14 C-2.66 13.01 -3.32 12.02 -4 11 C-5.32 13.31 -6.64 15.62 -8 18 C-9 16 -9 16 -8.3984375 13.828125 C-6.23882126 8.38787034 -4.09693238 4.20766028 0 0 Z " fill="#B7BABC" transform="translate(51,40)"/>
<path d="M0 0 C1.11719475 3.35158426 0.84380263 3.75715069 0 7 C-0.22288501 9.58656673 -0.41314385 12.15952778 -0.5625 14.75 C-0.60568359 15.44738281 -0.64886719 16.14476563 -0.69335938 16.86328125 C-0.79889596 18.57531922 -0.8998991 20.28763561 -1 22 C-1.66 22 -2.32 22 -3 22 C-4.60422861 13.97885696 -4.6948945 8.24199323 -1 1 C-0.67 0.67 -0.34 0.34 0 0 Z " fill="#F9F9F9" transform="translate(117,46)"/>
<path d="M0 0 C1.32 1.32 2.64 2.64 4 4 C2.90931332 7.77545388 2.0916909 10.47043472 -1 13 C-1.33 12.34 -1.66 11.68 -2 11 C-2.99 11.33 -3.98 11.66 -5 12 C-3.41037341 7.96479403 -1.71767682 3.98188718 0 0 Z " fill="#CACBCC" transform="translate(39,63)"/>
<path d="M0 0 C1.32 0.66 2.64 1.32 4 2 C2.25 7.75 2.25 7.75 0 10 C0 8.35 0 6.7 0 5 C-0.66 5 -1.32 5 -2 5 C-2.33 6.32 -2.66 7.64 -3 9 C-3.33 8.34 -3.66 7.68 -4 7 C-3.22265625 5.2734375 -3.22265625 5.2734375 -2.0625 3.375 C-1.381875 2.26125 -0.70125 1.1475 0 0 Z " fill="#989EA1" transform="translate(55,27)"/>
<path d="M0 0 C-2 3 -2 3 -4.1640625 3.51171875 C-5.38222656 3.59873047 -5.38222656 3.59873047 -6.625 3.6875 C-7.44226563 3.75324219 -8.25953125 3.81898437 -9.1015625 3.88671875 C-9.72804688 3.92410156 -10.35453125 3.96148437 -11 4 C-7.65667474 -0.27945633 -5.29105716 -0.4070044 0 0 Z " fill="#F4F4F5" transform="translate(93,5)"/>
<path d="M0 0 C1.32 0 2.64 0 4 0 C4 0.66 4 1.32 4 2 C6.97 2.495 6.97 2.495 10 3 C6.86501708 4.85776765 4.62528568 5.20140476 1 5 C0.67 3.35 0.34 1.7 0 0 Z " fill="#93979A" transform="translate(3,93)"/>
<path d="M0 0 C0 1.65 0 3.3 0 5 C-1.98 5.66 -3.96 6.32 -6 7 C-5.75 4.625 -5.75 4.625 -5 2 C-1.95238095 0 -1.95238095 0 0 0 Z " fill="#CCCDCF" transform="translate(38,73)"/>
<path d="M0 0 C1.32 1.32 2.64 2.64 4 4 C3.34 5.32 2.68 6.64 2 8 C1.67 7.01 1.34 6.02 1 5 C-0.65 6.65 -2.3 8.3 -4 10 C-2.8905928 6.51329166 -1.73662334 3.22515763 0 0 Z " fill="#8D8F94" transform="translate(39,63)"/>
<path d="M0 0 C0.99 0.33 1.98 0.66 3 1 C2.34 1 1.68 1 1 1 C0.731875 2.134375 0.46375 3.26875 0.1875 4.4375 C-0.204375 5.613125 -0.59625 6.78875 -1 8 C-1.99 8.33 -2.98 8.66 -4 9 C-4.33 7.35 -4.66 5.7 -5 4 C-2.6875 1.9375 -2.6875 1.9375 0 0 Z " fill="#8D9295" transform="translate(132,27)"/>
<path d="M0 0 C-0.6875 2.4375 -0.6875 2.4375 -2 5 C-4.625 5.8125 -4.625 5.8125 -7 6 C-4.84615385 0 -4.84615385 0 0 0 Z " fill="#E1E1E2" transform="translate(77,10)"/>
<path d="M0 0 C3.3 0 6.6 0 10 0 C10 0.99 10 1.98 10 3 C6.7 2.67 3.4 2.34 0 2 C0 1.34 0 0.68 0 0 Z " fill="#F9F9F9" transform="translate(147,94)"/>
<path d="M0 0 C2.31 0 4.62 0 7 0 C6.67 0.99 6.34 1.98 6 3 C3.69 3 1.38 3 -1 3 C-0.67 2.01 -0.34 1.02 0 0 Z " fill="#F4F4F4" transform="translate(7,93)"/>
</svg>
